<?xml version="1.0" standalone="no"?><!DOCTYPE svg PUBLIC "-//W3C//DTD SVG 1.1//EN" "http://www.w3.org/Graphics/SVG/1.1/DTD/svg11.dtd"><svg t="1595424603428" class="icon" viewBox="0 0 1024 1024" version="1.1" xmlns="http://www.w3.org/2000/svg" p-id="6033" xmlns:xlink="http://www.w3.org/1999/xlink" width="200" height="200"><defs><style type="text/css"></style></defs><path d="M580.1 220.2h-87.7c-0.1 0-0.2-0.1-0.1-0.2 1.1-3.7 1.7-7.4 1.7-11.2 0-19.6-14.7-35.5-32.8-35.5-18.1 0-32.9 15.9-32.9 35.5 0 3.8 0.6 7.5 1.7 11.2 0 0.1 0 0.2-0.1 0.2h-87.7c-7.7 0-13.9 6.8-13.9 15v60.2c0 8.3 6.3 15 13.9 15h237.9c7.7 0 13.9-6.8 13.9-15v-60.2c0-8.2-6.3-15-13.9-15z m-1.2 73.7c0 0.1-0.1 0.1 0 0l-235.5 0.1c-0.1 0-0.1-0.1-0.1-0.1v-57.4c0-0.1 0.1-0.1 0.1-0.1l88.1 0.1c3.9 0 7.7-1.5 10.4-4.6 3.8-4.4 4.8-10.5 2.8-15.9-0.9-2.3-1.3-4.8-1.3-7.2 0-10.6 8-19.2 17.8-19.2s17.7 8.6 17.7 19.2c0 2.4-0.5 4.8-1.3 7.2-2 5.4-1 11.5 2.9 15.9 2.7 3 6.5 4.5 10.3 4.5h88.1c0.1 0 0.1 0.1 0.1 0.1v57.4z" p-id="6034"></path><path d="M664 201.5h-28.4c-2.9 0-5.7-1.5-7.3-4.3-7.5-12.9-20.8-21.4-35.8-21.4h-58.9c-3.2 0-6.1-1.9-7.6-5-4.7-9.4-11.2-17.7-18.9-24.4C494 135.1 477.7 129 461 129c-16.7 0-33.1 6.2-46.1 17.4-7.8 6.8-14.2 15-18.9 24.4-1.5 3-4.4 5-7.6 5h-58.9c-15 0-28.3 8.5-35.8 21.4-1.6 2.7-4.3 4.3-7.3 4.3H258c-37.1 0-67.3 32.6-67.3 72.7v538.6c0 45.3 34 82.1 76 82.1h300.1c9.6 0 17.3-8.5 17.3-18.7 0.1-10.3-7.8-18.7-17.3-18.7H266.7c-22.8 0-41.3-20-41.3-44.6V274.1c0-19.4 14.6-35.2 32.6-35.2h54.8c4.6 0 8.4-3.9 8.6-8.9 0.5-9.4 7.6-16.8 16.3-16.8h75.2c4 0 7.5-3 8.5-7.2l1.6-7.2c4.3-19.2 19.9-32.5 38.1-32.5 18.2 0 33.9 13.3 38.1 32.5l1.6 7.2c0.9 4.2 4.4 7.2 8.5 7.2h75.2c8.7 0 15.8 7.4 16.3 16.7 0.2 5 4 8.9 8.6 8.9H664c18 0 32.6 15.8 32.6 35.2v238c0 10.3 7.8 18.7 17.3 18.7s17.3-8.5 17.3-18.7V274.1c0.1-40-30.2-72.6-67.2-72.6z" p-id="6035"></path><path d="M624.5 288.9h-6.6c-9.5 0-17.5 7.2-19.5 16.8-1.3 5.9-6 10.3-11.6 10.3h-254c-5.6 0-10.4-4.3-11.6-10.3-2.1-9.6-10-16.8-19.5-16.8H295c-14.9 0-27 13.1-27 29.2v487c0 16.1 12.1 29.2 27 29.2h264.7c4.1 0 7.5-3.7 7.5-8.1 0-4.4-3.4-8.1-7.5-8.1H295c-6.6 0-11.9-5.7-11.9-12.8V318.1c0-7.1 5.3-12.8 11.9-12.8h0.5c5.6 0 10.4 4.3 11.6 10.3 2.1 9.6 10 16.8 19.5 16.8H593c9.5 0 17.5-7.2 19.5-16.8 1.3-5.9 6-10.3 11.6-10.3h0.5c6.6 0 11.9 5.7 11.9 12.8v214.1h-0.1v3.4c0 4.4 3.4 8.1 7.5 8.1s7.5-3.7 7.5-8.1V318.1c0-16.1-12.1-29.2-26.9-29.2z" p-id="6036"></path><path d="M809.4 753.5c13.9 0 23.7 11.6 23.7 25.8 0 14.2-9.8 24.3-23.7 24.3h-96.8c-2.2 0-4 1.9-4 4.4v64.7c0 12-10.8 21.8-24.2 21.8-13.3 0-22.7-9.8-22.7-21.8V808c0-2.4-1.8-4.4-4-4.4h-76.6c-13.9 0-25.2-10-25.2-24.3 0-14.2 11.3-25.8 25.2-25.8h76.6c2.2 0 4-1.9 4-4.4v-41.3c0-2.4-1.8-4.4-4-4.4h-76.6c-13.9 0-25.2-10-25.2-24.3 0-14.2 11.3-25.8 25.2-25.8h57.1c3.5 0 5.3-4.5 2.9-7.3l-67.5-80c-6.6-8-4-22.2 6.1-31.6 10-9.4 23.4-10.7 30.1-2.7l72.4 87.3c1.6 1.9 4.3 1.9 5.9 0l71-87.3c6.6-8 20.1-6.8 30.1 2.7 10 9.4 12.7 23.7 6.1 31.6l-67.5 80c-2.4 2.8-0.5 7.3 2.9 7.3h77.2c13.9 0 25.2 11.5 25.2 25.8s-11.3 24.3-25.2 24.3h-95.2c-2.2 0-4 1.9-4 4.4v41.3c0 2.4 1.8 4.4 4 4.4h96.7z" p-id="6037"></path></svg>