<?xml version="1.0" standalone="no"?><!DOCTYPE svg PUBLIC "-//W3C//DTD SVG 1.1//EN" "http://www.w3.org/Graphics/SVG/1.1/DTD/svg11.dtd"><svg t="1595424510034" class="icon" viewBox="0 0 1024 1024" version="1.1" xmlns="http://www.w3.org/2000/svg" p-id="3161" xmlns:xlink="http://www.w3.org/1999/xlink" width="200" height="200"><defs><style type="text/css"></style></defs><path d="M853.34016 293.0688l-112.4352-112.39424a34.14016 34.14016 0 0 0-48.2816 0l-112.40448 112.4352 36.23936 36.15744 74.73152-74.72128v120.92416a85.31968 85.31968 0 0 1-85.34016 85.34016h-25.6v51.2h25.6c75.40736 0 136.5504-61.14304 136.5504-136.54016V254.60736l74.69056 74.73152 36.2496-36.27008zM827.74016 563.21024h25.6v-51.2h-25.6c-75.40736 0-136.54016 61.12256-136.54016 136.51968v120.87296l-74.76224-74.73152-36.23936 36.20864 112.4352 112.45568a34.14016 34.14016 0 0 0 48.2816 0l112.40448-112.45568-36.23936-36.20864-74.65984 74.67008V648.52992a85.2992 85.2992 0 0 1 85.31968-85.31968zM375.47008 477.87008H307.2a68.29056 68.29056 0 0 1-68.27008-68.25984A68.2496 68.2496 0 0 1 307.2 341.34016h68.25984a68.23936 68.23936 0 0 1 68.27008 68.27008H512c0-75.40736-61.14304-136.54016-136.54016-136.54016V204.8H307.2v68.27008c-75.40736 0-136.52992 61.14304-136.52992 136.54016 0 75.39712 61.12256 136.51968 136.52992 136.51968h68.25984A68.2496 68.2496 0 0 1 443.72992 614.4a68.28032 68.28032 0 0 1-68.27008 68.27008H307.2A68.29056 68.29056 0 0 1 238.92992 614.4h-68.27008c0 75.39712 61.12256 136.54016 136.52992 136.54016V819.2h68.25984v-68.25984c75.40736 0 136.54016-61.14304 136.54016-136.54016 0.02048-75.38688-61.12256-136.52992-136.51968-136.52992z" p-id="3162"></path></svg>